<svg width="75" height="76" viewBox="0 0 75 76" fill="none" xmlns="http://www.w3.org/2000/svg">
<g clip-path="url(#clip0)">
<rect width="75" height="75.3937" fill="black"/>
<path d="M75 37.6968C75 16.8752 58.2129 0 37.5 0C16.7871 0 0 16.8752 0 37.6968C0 58.5185 16.7871 75.3937 37.5 75.3937C37.7197 75.3937 37.9395 75.3937 38.1592 75.379V46.0461H30.1025V36.6072H38.1592V29.6568C38.1592 21.6021 43.0518 17.2139 50.2002 17.2139C53.6279 17.2139 56.5723 17.4642 57.4219 17.582V26.0049H52.5C48.6182 26.0049 47.8564 27.8603 47.8564 30.5845V36.5924H57.1582L55.9424 46.0314H47.8564V73.9359C63.5303 69.4152 75 54.9108 75 37.6968Z" fill="#E0218A"/>
</g>
<defs>
<clipPath id="clip0">
<rect width="75" height="75.3937" fill="white"/>
</clipPath>
</defs>
</svg>
