<svg width="75" height="75" viewBox="0 0 75 75" fill="none" xmlns="http://www.w3.org/2000/svg">
<path d="M54.6981 0H20.3018C9.10719 0 0 9.10719 0 20.3018V54.6986C0 65.8927 9.10719 74.9999 20.3018 74.9999H54.6986C65.8927 74.9999 74.9999 65.8927 74.9999 54.6986V20.3018C74.9999 9.10719 65.8927 0 54.6981 0V0ZM70.603 54.6986C70.603 63.4682 63.4682 70.603 54.6981 70.603H20.3018C11.5316 70.603 4.39681 63.4682 4.39681 54.6986V20.3018C4.39681 11.5316 11.5316 4.39681 20.3018 4.39681H54.6986C63.4682 4.39681 70.603 11.5316 70.603 20.3018V54.6986Z" fill="#E0218A"/>
<path d="M37.4999 16.9927C26.192 16.9927 16.9927 26.192 16.9927 37.4999C16.9927 48.8078 26.192 58.0071 37.4999 58.0071C48.8078 58.0071 58.0071 48.8078 58.0071 37.4999C58.0071 26.192 48.8078 16.9927 37.4999 16.9927ZM37.4999 53.6103C28.617 53.6103 21.3895 46.3833 21.3895 37.4999C21.3895 28.617 28.617 21.3895 37.4999 21.3895C46.3833 21.3895 53.6103 28.617 53.6103 37.4999C53.6103 46.3833 46.3833 53.6103 37.4999 53.6103Z" fill="#E0218A"/>
<path d="M58.4976 9.70996C55.156 9.70996 52.438 12.4285 52.438 15.7696C52.438 19.1113 55.156 21.8298 58.4976 21.8298C61.8393 21.8298 64.5578 19.1113 64.5578 15.7696C64.5578 12.4279 61.8393 9.70996 58.4976 9.70996ZM58.4976 17.4324C57.581 17.4324 56.8348 16.6863 56.8348 15.7696C56.8348 14.8524 57.581 14.1068 58.4976 14.1068C59.4149 14.1068 60.161 14.8524 60.161 15.7696C60.161 16.6863 59.4149 17.4324 58.4976 17.4324Z" fill="#E0218A"/>
</svg>
